[IMG]http://img846.imageshack.us/img846/7564/thegrey.jpg[/IMG]
[code]
The Grey 2012 SCR READNFO XViD AC3-26K

Imdb: 
http://www.imdb.com/title/tt1601913/

Plot:
In Alaska, an oil drilling team struggle to survive after a plane crash strands them in the wild. 

Hunting the humans are a pack of wolves who see them as intruders.

Sources:
CrEwSaDe + a little birdy :P

Notes:
READNFO.. WELL THERE IS BIG ASS WATERMAK IN THE MIDDLE NO POINT BLURRING THIS AS IT WILL BLUR SOME OF 

THE VIDEO!! EVEN CROPPING IT WOULD MAKE NO SENSE AS ITS IN THE MIDDLE PMSL...
 SO DECIDED TO LEAVE THIS IN :/....
THAT BEEN SAID ADDED FEW FILTERS TO THE VIDEO TO MAKE IT LOOK NICE!!..
IT IS IN SYNC!
SO TAKE IT OR LEAVE IT SIMPLE...

Greetz:
Xtreme 

Encode|FYA|ILLUMANTI|CM8|RX|VISION|HDSCENE|NIGHTMAREZ|xTriLL|DTRG|CRYS|REMIXHD|BIDA|RX|REFILL|INSPiRAL

|SIC|ZOMBIESZ|HOPE|Anonymous|GooN
To all the people who have helped me :P you know who you are

Anything to offer email us @: 26k@hushmail.me

Video
ID                                       : 0
Format                                   : MPEG-4 Visual
Format profile                           : Advanced Simple@L5
Format settings, BVOP                    : 2
Format settings, QPel                    : No
Format settings, GMC                     : No warppoints
Format settings, Matrix                  : Default (H.263)
Codec ID                                 : XVID
Codec ID/Hint                            : XviD
Duration                                 : 1h 56mn
Bit rate                                 : 1 477 Kbps
Width                                    : 720 pixels
Height                                   : 304 pixels
Display aspect ratio                     : 2.35:1
Frame rate                               : 23.976 fps
Color space                              : YUV
Chroma subsampling                       : 4:2:0
Bit depth                                : 8 bits
Scan type                                : Progressive
Compression mode                         : Lossy
Bits/(Pixel*Frame)                       : 0.281
Stream size                              : 1.21 GiB (87%)
Writing library                          : XviD 64

Audio
ID                                       : 1
Format                                   : AC-3
Format/Info                              : Audio Coding 3
Mode extension                           : CM (complete main)
Codec ID                                 : 2000
Duration                                 : 1h 56mn
Bit rate mode                            : Constant
Bit rate                                 : 224 Kbps
Channel(s)                               : 2 channels
Channel positions                        : Front: L R
Sampling rate                            : 48.0 KHz
Bit depth                                : 16 bits
Compression mode                         : Lossy
Delay relative to video                  : 200ms
Stream size                              : 187 MiB (13%)
Alignment                                : Split accross interleaves
Interleave, duration                     : 9357 ms (224.33 video frames)

[/code]
[IMG]http://i.imgur.com/xW89t.png[/IMG]
[IMG]http://i.imgur.com/aN1lP.png[/IMG]
[IMG]http://i.imgur.com/u08co.png[/IMG]
[IMG]http://i.imgur.com/RJrfh.png[/IMG]
[IMG]http://img839.imageshack.us/img839/7589/vlcsnap2012021816h34m36.png[/IMG]
[IMG]http://img687.imageshack.us/img687/396/vlcsnap2012021816h36m14.png[/IMG]
[IMG]http://img718.imageshack.us/img718/3041/vlcsnap2012021816h45m46.png[/IMG]
[IMG]http://img838.imageshack.us/img838/8695/vlcsnap2012021816h45m55.png[/IMG]
[IMG]http://img29.imageshack.us/img29/4466/vlcsnap2012021816h46m49.png[/IMG]

[img]http://img851.imageshack.us/img851/5503/26ks.jpg[/img]
Thank you smallz for banner!